<svg width="200" height="60" viewBox="0 0 200 60" xmlns="http://www.w3.org/2000/svg">
  <!-- Define Colors and Styles -->
  <defs>
    <style>
      .navy { fill: #1B263B; }
      .blue { fill: #3B82F6; }
      .red { fill: #E03131; }
      .line { stroke: #1B263B; stroke-width: 2; stroke-linecap: round; }
      .text-main { fill: #1B263B; font-family: 'Outfit', sans-serif; }
      .text-small { fill: #1B263B; font-family: 'Outfit', sans-serif; letter-spacing: 1px; }
    </style>
  </defs>

  <!-- Icon Section (Left) -->
  <g transform="translate(5, 5)">
    <!-- Connections -->
    <line x1="12" y1="12" x2="33" y2="12" class="line" />
    <line x1="12" y1="38" x2="33" y2="38" class="line" />
    <line x1="12" y1="12" x2="12" y2="38" class="line" />
    <line x1="33" y1="12" x2="33" y2="38" class="line" />

    <!-- Top Left Figure (Navy) -->
    <circle cx="12" cy="8" r="4.5" class="navy" />
    <path d="M7 16 C 7 13, 17 13, 17 16 L 18 20 L 6 20 Z" class="navy" />

    <!-- Top Right Figure (Navy) -->
    <circle cx="33" cy="8" r="4.5" class="navy" />
    <path d="M28 16 C 28 13, 38 13, 38 16 L 39 20 L 27 20 Z" class="navy" />

    <!-- Bottom Left Figure (Blue) -->
    <circle cx="12" cy="34" r="4.5" class="navy" />
    <path d="M7 42 C 7 39, 17 39, 17 42 L 18 46 L 6 46 Z" class="blue" />

    <!-- Bottom Right Figure (Red) -->
    <circle cx="33" cy="34" r="4.5" class="navy" />
    <path d="M28 42 C 28 39, 38 39, 38 42 L 39 46 L 27 46 Z" class="red" />
  </g>

  <!-- Text Section (Right) -->
  <g transform="translate(55, 12)">
    <text x="0" y="20" class="text-main" font-size="22" font-weight="800">BIZ</text>
    <rect x="0" y="25" width="40" height="2" class="red" />
    <text x="0" y="42" class="text-main" font-size="14" font-weight="600">IT Works</text>
    <text x="0" y="52" class="text-small" font-size="8" font-weight="400">TEKNOLOJI</text>
  </g>
</svg>
