<svg xmlns="http://www.w3.org/2000/svg" version="1.2" viewBox="4.6 18.3 140.8 34.9"><style>.a{fill:#e60000}</style><path fill-rule="evenodd" class="a" d="m4.6 35.7c0-9.6 7.8-17.4 17.4-17.4 9.5 0 17.3 7.8 17.3 17.4 0 9.7-7.8 17.5-17.3 17.5-9.6 0-17.4-7.8-17.4-17.5zm7.7-0.9c0.1 6.6 5 10.7 9.8 10.7 5.9-0.1 9.4-4.9 9.3-9.4 0-4.4-2.4-7.6-7.7-8.9 0 0 0-0.1 0-0.3 0-3.3 2.5-6.3 5.7-6.9-0.3-0.1-0.8-0.2-1.3-0.2-3.6 0.1-7.6 1.6-10.5 4-2.9 2.5-5.3 6.7-5.3 11z"/><path class="a" d="m50.5 43l-5.3-12.8h3.5l3.3 8.5 3.2-8.5h3.3l-5.1 12.8z"/><path fill-rule="evenodd" class="a" d="m69.4 41.1q-0.7 1-1.9 1.6-1.1 0.5-2.6 0.5-1.5 0-2.7-0.5-1.1-0.6-1.9-1.6-0.7-0.9-1.1-2.1-0.4-1.2-0.4-2.5 0-1.2 0.4-2.4 0.4-1.2 1.1-2.1 0.8-0.9 1.9-1.5 1.2-0.6 2.7-0.6 1.5 0 2.6 0.6 1.2 0.6 1.9 1.5 0.8 0.9 1.2 2.1 0.3 1.2 0.3 2.4 0 1.3-0.3 2.5-0.4 1.2-1.2 2.1zm-2.4-7.3q-0.4-0.5-0.9-0.8-0.5-0.3-1.2-0.3-0.7 0-1.3 0.3-0.5 0.3-0.8 0.8-0.4 0.5-0.6 1.2-0.2 0.7-0.2 1.5 0 0.9 0.2 1.6 0.2 0.7 0.5 1.2 0.4 0.5 0.9 0.8 0.6 0.3 1.3 0.3 0.7 0 1.2-0.3 0.5-0.3 0.9-0.8 0.4-0.5 0.6-1.2 0.1-0.7 0.1-1.6 0-0.8-0.1-1.5-0.2-0.7-0.6-1.2z"/><path fill-rule="evenodd" class="a" d="m79.7 42.9q-0.7 0.3-1.7 0.3-1.4 0-2.3-0.5-1-0.6-1.7-1.5-0.7-0.9-1.1-2.1-0.3-1.2-0.3-2.6 0-1.2 0.4-2.4 0.3-1.2 1.1-2.1 0.7-0.9 1.8-1.5 1.2-0.6 2.7-0.6 1 0 2.1 0.4v-4.9h3.3v17.6h-3l-0.1-1q-0.5 0.5-1.2 0.9zm-2.2-9.9q-0.6 0.3-0.9 0.8-0.4 0.6-0.6 1.3-0.2 0.6-0.2 1.4 0 0.7 0.1 1.5 0.2 0.7 0.6 1.2 0.3 0.6 0.8 0.9 0.6 0.3 1.3 0.3 0.6 0 1.2-0.3 0.7-0.3 0.9-0.8v-6.3q-0.9-0.3-1.7-0.3-0.9 0-1.5 0.3z"/><path fill-rule="evenodd" class="a" d="m92 42.9q-0.9 0.3-1.8 0.3-0.9 0-1.6-0.2-0.8-0.3-1.3-0.8-0.6-0.5-1-1.3-0.3-0.7-0.3-1.7 0-0.9 0.3-1.7 0.4-0.7 1-1.2 0.7-0.5 1.5-0.8 0.8-0.3 1.7-0.5 0.6-0.1 1.4-0.2 0.7-0.1 1.2-0.1v-0.2q0-1-0.5-1.5-0.5-0.4-1.5-0.4-0.5 0-1.1 0.1-0.5 0.1-0.8 0.3-0.4 0.2-0.7 0.4-0.4 0.2-0.5 0.4l-1.1-2.3q0.2-0.2 0.6-0.5 0.5-0.2 1.1-0.5 0.6-0.2 1.4-0.4 0.7-0.2 1.6-0.2 1.1 0 2 0.3 0.8 0.3 1.5 0.9 0.6 0.6 0.9 1.5 0.4 0.9 0.4 2.2v8.1h-3l-0.1-0.9q-0.5 0.6-1.3 0.9zm-1-5.6q-1 0.2-1.4 0.7-0.5 0.5-0.5 1.1 0 0.6 0.5 1 0.5 0.4 1.3 0.4 0.7 0 1.2-0.3 0.6-0.2 1.1-0.6v-2.6q-0.6 0-1.1 0.1-0.6 0-1.1 0.2z"/><path class="a" d="m106.5 28.3q-0.2-0.1-0.7-0.3-0.4-0.1-1.2-0.1-0.7 0-1.1 0.4-0.5 0.4-0.5 1.3v0.6h2.8v2.7h-2.8v10.1h-3.2v-10.1h-1.7v-2.7h1.7v-0.6q0-1.3 0.3-2.1 0.3-0.9 0.9-1.4 0.5-0.6 1.3-0.8 0.8-0.3 1.7-0.3 1.1 0 1.9 0.2 0.8 0.3 0.9 0.3z"/><path fill-rule="evenodd" class="a" d="m117 41.1q-0.7 1-1.9 1.6-1.1 0.5-2.6 0.5-1.5 0-2.7-0.5-1.1-0.6-1.9-1.6-0.7-0.9-1.1-2.1-0.4-1.2-0.4-2.5 0-1.2 0.4-2.4 0.4-1.2 1.1-2.1 0.8-0.9 1.9-1.5 1.2-0.6 2.7-0.6 1.5 0 2.6 0.6 1.2 0.6 1.9 1.5 0.8 0.9 1.2 2.1 0.4 1.2 0.3 2.4 0.1 1.3-0.3 2.5-0.4 1.2-1.2 2.1zm-2.4-7.3q-0.4-0.5-0.9-0.8-0.5-0.3-1.2-0.3-0.7 0-1.3 0.3-0.5 0.3-0.8 0.8-0.4 0.5-0.6 1.2-0.2 0.7-0.2 1.5 0 0.9 0.2 1.6 0.2 0.7 0.5 1.2 0.4 0.5 0.9 0.8 0.6 0.3 1.3 0.3 0.7 0 1.2-0.3 0.5-0.3 0.9-0.8 0.4-0.5 0.6-1.2 0.1-0.7 0.1-1.6 0-0.8-0.1-1.5-0.2-0.7-0.6-1.2z"/><path class="a" d="m128.7 43v-7.3q0-1.5-0.6-2.2-0.6-0.8-1.7-0.8-0.8 0-1.4 0.4-0.7 0.4-1.1 0.8v9.1h-3.3v-12.8h3l0.1 1q0.8-0.6 1.7-0.9 1-0.4 2-0.4 1 0 1.8 0.3 0.9 0.3 1.5 1 0.6 0.6 0.9 1.7 0.3 1.1 0.3 2.5v7.6z"/><path fill-rule="evenodd" class="a" d="m140.5 40.4q0.6 0 1.2-0.1 0.6-0.1 1-0.3 0.5-0.2 0.8-0.3 0.3-0.2 0.5-0.4l0.8 2.7q-0.1 0.1-0.5 0.3-0.5 0.3-1.1 0.5-0.6 0.2-1.4 0.3-0.8 0.1-1.8 0.1-1.2 0-2.3-0.4-1.1-0.4-2-1.2-0.8-0.8-1.3-2-0.5-1.3-0.5-3 0-1.6 0.4-2.9 0.5-1.2 1.3-2 0.8-0.9 1.9-1.3 1-0.5 2.2-0.5 1.3 0 2.3 0.4 1 0.4 1.8 1.2 0.7 0.9 1.1 2.2 0.5 1.3 0.5 3.1v0.6h-8.3q0.2 1.6 1 2.3 0.9 0.7 2.4 0.7zm0.7-7.3q-0.3-0.3-0.7-0.4-0.4-0.2-0.8-0.2-0.8 0-1.6 0.7-0.7 0.6-0.9 1.9h4.9q-0.1-0.7-0.3-1.2-0.2-0.5-0.6-0.8z"/></svg>