<svg xmlns="http://www.w3.org/2000/svg" viewBox="0 0 400 100" width="100%" height="100%">
  <g transform="translate(10, 10)">
    <!-- Vodafone Speech Mark Logo Symbol -->
    <circle cx="40" cy="40" r="40" fill="#E60000"/>
    <path d="M40 18 C28 18 19 27 19 39 C19 53 31 66 40 68 C40 68 33 55 33 43 C33 34 38 29 44 29 C48 29 51 32 51 36 C51 43 41 49 41 57 C41 61 44 63 48 63 C57 63 65 52 65 39 C65 27 54 18 40 18 Z" fill="#FFFFFF"/>
  </g>
  <!-- Vodafone Wordmark Text -->
  <text x="100" y="62" font-family="'Helvetica Neue', Arial, sans-serif" font-size="42" font-weight="bold" fill="#FFFFFF" letter-spacing="-1">vodafone</text>
</svg>
